<?xml version="1.0" encoding="UTF-8"?>
<svg width="700pt" height="700pt" version="1.1" viewBox="0 0 700 700" xmlns="http://www.w3.org/2000/svg" xmlns:xlink="http://www.w3.org/1999/xlink">
 <g>
  <path d="m472.66 121.2c4.7266-2.0938 14.836-3.7188 14.98-7.957-4.2578 3.3086-12.59 4.2656-14.98 7.957z"/>
  <path d="m527.59 129.53c4.1211 0.10156 8.0039-0.17969 9.832-3.7461-3.5039-2.0391-6.9453 2.2852-9.832 3.7461z"/>
  <path d="m537.89 134.27c4.5039-1.8711 11.559 0.30859 13.758-5.2422-4.6719-1.3828-9.543 3.3555-13.758 5.2422z"/>
  <path d="m517.44 124.22c-5.0664 0.47656-8.8086 3.0625-12.621 5.5 5.0664-0.44922 9.8516-1.3672 12.621-5.5z"/>
  <path d="m562.7 143.51c2.5156 0.38672 4.1562-0.62109 6.6484-0.26953 0.089844-0.38672 0.17188-0.76172 0.25781-1.1367-0.57031-0.12891-0.57031-0.62109-1.0039-0.82812-1.9414 0.80078-4.4688 0.64844-5.9023 2.2344z"/>
  <path d="m512.95 180.64c11.867-27.266-30.734-0.42578 0 0z"/>
  <path d="m462.96 158.47c-1.875-0.17969-9.2578 2.6875-10.219 5.4492-5.457 15.809 25.016-3.9883 10.219-5.4492z"/>
  <path d="m376.85 155.6c20.52-0.98047-3.0898-20.367 0 0z"/>
  <path d="m537.18 181.97c-21.836 4.9727 4.1562 21.465 0 0z"/>
  <path d="m310.14 146.37c5.3555-16.43-18.57-12.062-14.895 4.9844 5.125 3.6953 13.27 0 14.895-4.9844z"/>
  <path d="m574.04 198.76c-0.82422 1.3164-4.4961 2.1055-3.3164 4.0312 0.69922-1.5234 4.75-1.6914 3.3164-4.0312z"/>
  <path d="m565.91 216.05c-11.426 5.3359-20.867 13.832-30.684 21.723 10.555-6.7266 22.504-11.223 30.684-21.723z"/>
  <path d="m513.41 223.24c1.6445-2.8164 2-7.6836 4.043-9.8555-9.25-9.543-17.703 13.355-4.043 9.8555z"/>
  <path d="m472.82 217.57c-1.8477-0.86719-1.2539 2.1445-3.2383 1.0586 0.16406-4.6484-5.9922-5.332-6.8438-9.3359 0.39062-1.4453 2.1602-0.69922 3.6719-0.36328-0.42578-2.168 0.074219-4.9219-2.2461-5.9023-25.789-4.9453-51.328 49.285-10.504 46.082 2.0273 1.1641 0.57812 4.5078 4.3398 4.5859 3.2773-10.785 22.48-20.227 14.82-36.125zm-28.551 1.8594c-1.4883-2.1562 1.4727-3.7969 2.7422-4.1445 2.2266 1.4609-1.625 3.2305-2.7422 4.1445zm6.8789 3.9648c-0.46875-4.3125 5.5898-7.2578 7.8633-2.9961-0.51562 4.2891-4.6016 5.5039-7.8633 2.9961zm4.7695 18.445c0.14062-2.5703 3.1367-6.7422 4.6094-9.7109-0.54688-1.125-2.3359-1.4609-3.0234-2.4922 3.1523-3.7695 5.6172-8.6289 10.555-9.5586 0.97266 3.1523-1.3945 6.8438-3.5156 7.5664 0.79688 1.4727 2.832-1.6523 5.375 0.039063-0.18359 8.8867-7.1211 13.367-14 14.156z"/>
  <path d="m220.77 149.93c-2.7656-1.0312-3.7578 0.73828-5.1953 1.8086 2.207 0.15234 4.0352-0.28516 5.1953-1.8086z"/>
  <path d="m564.55 232.51c-2.1797-0.11719-3.3086 1.4453-4.7617 2.5039 2.1328 0.027344 3.9141-0.50391 4.7617-2.5039z"/>
  <path d="m553.63 238.4c-2.918 1.2773-5.4414 3.2148-7.8125 5.3867 3.2305-0.29688 7.4375-3.1367 7.8125-5.3867z"/>
  <path d="m538.14 248.61c1.7812-0.050781 5.125-1.6133 4.3281-3.2031-1.5898 0.83984-3.3398 1.4219-4.3281 3.2031z"/>
  <path d="m213.44 171.59c-7.5078-0.72266-13.609 7.2188-19.867 11.031 6.4297-3.5 16.469-5.2969 19.867-11.031z"/>
  <path d="m517.69 285.84c14.492-6.9102 27.523-16.156 40.512-25.469-13.969 4.6641-27.531 16.66-40.512 25.469z"/>
  <path d="m556.05 272.44c-15.977 5.6055-35.488 16.391-48.113 27.328 15.5-9.957 33.133-16.531 48.113-27.328z"/>
  <path d="m197.9 200.36c-3.3594-1.1875-7.2344 0.86719-6.7266 3.2539 2.125-1.2773 6.2031 0.55859 6.7266-3.2539z"/>
  <path d="m509.39 309.08c12.578-8.6797 27.551-13.535 38.988-24.023-13.75 6.2773-28.832 14.598-38.988 24.023z"/>
  <path d="m179.95 208.24c-1.5078 0.98047-5.4883 2.0781-4.582 4.3398 0.84375-1.7812 6.7461-2.8789 4.582-4.3398z"/>
  <path d="m490.07 325.61c19.617-8.8477 38.121-19.465 56.113-30.891-19.695 5.6289-38.242 19.785-56.113 30.891z"/>
  <path d="m515.46 287.72c-1.9258-0.47656-2.4961 1.1875-3.4961 2.207 1.9727 0.54297 2.25-1.6016 3.4961-2.207z"/>
  <path d="m178.26 228.79c2.5469 0.45313 4.3438-0.30859 5.3242-2.375-2.9531-1.0977-3.9844 0.89063-5.3242 2.375z"/>
  <path d="m433.59 297.78c-11.473-0.87891-20.434 0.95703-26.926 5.2305-22.645 14.891-20.422 61.836 14.508 64.949 21.605 1.9102 39.586-19.707 34.199-50.25-0.99609-5.6719-11.922-19.168-21.781-19.93zm-8.3789 5.2695c-4.375 2.0938-8.4102 4.7148-12.441 7.3359-0.875-6.8828 7.8008-9.1953 12.441-7.3359zm14.809 45.254c-2.3242-6.7266-10.414-12.18-16.105-5.4492-1.3086-2.4805 1.8242-2.8555 2.7383-4.1719-2.6953-2.8281 0.66797-6.2773 2.957-7.6992-4.3125-3.5-5.75 4.2617-10.266 3.0352 0.5-3.8633 4.0195-2.9062 5.8516-4.6484-2.3672-3.2539 0.64844-5.6562 2.9531-7.7109-5.9688-0.12891-9.8008 7.0664-15.023 5.5547 1.1406-3.6016 4.0703-4.3672 6.2344-6.3555-0.60938-2.0938-3.7031 0.41406-4.418-1.6016 6.3945-15.227 28.051-18.934 30.309 0.92969 1.1133-0.30859 1.6641-1.5 1.9141-3.1523 9.3594 3.3359 3.4336 32.434-7.1445 31.27z"/>
  <path d="m499.32 346.01c-2.3242 1.125-4.6367 2.2695-6.9141 3.4727 2.3477-0.92969 4.6445-2.1367 6.9141-3.4727z"/>
  <path d="m499.32 346.01c13.492-6.5234 27.535-12.176 38.977-21.957-13.656 1.0234-25.773 14.172-38.977 21.957z"/>
  <path d="m172.95 252.11c2.5859-1.0469 6.0195-0.76172 7.4219-3.6953-2.4648-2.1523-8.1562 0.80469-7.4219 3.6953z"/>
  <path d="m533.09 339.02c-11.57 1.8086-21.133 8.0352-35.645 14.605-11.543 5.2422-33.918 14.078-26.137 22.754 17.539-10.059 36.227-18.324 55.07-26.332 0.88672-2.168-0.98047-2.6211-0.09375-4.8047 1.9102-2.6641 6.3906-1.1992 6.8047-6.2227zm-59.336 31.938c7.5039-10.023 20.691-11.004 30.781-16.906-6.707 4.5938-19.676 16.715-30.781 16.906z"/>
  <path d="m316.7 345.93c6.4414-6.9727 20.059-33.113 6.7188-37.363-26.773-8.5234-41.312 41.238-6.7188 37.363zm9.2773-30.195c-2.9805-0.23438-3.1992-2.2227-4.6016-3.4375 1.4961-2.0898 6.5391 0.30078 4.6016 3.4375zm-8.125 4.1328c0.14453 4.0273 2.7148 8.9258-0.003907 13.148-3.7539-4.1328-1.7656-11.867-9.4805-13.523 1.582-3.9766 7.3906-2.3242 9.4844 0.375z"/>
  <path d="m209.6 293.39c-3.707 1.5898-3.707 9.0781-7.7109 10.203-2.6836-2.8672-6.2539-5.1641-8.9375-8.0195 2.0625-3.4492 4.8047-5.7969 9.9609-4.3125 0.066407-2.207-0.15625-4.8047 2.3008-4.8672 1.6953 0.24609 1.457 1.6914 3.1523 1.9258-8.5-12.168-23.27 3.7578-23.75 14.93-0.94141 21.848 32.797 10.715 24.984-9.8594z"/>
  <path d="m159.99 282.67c-2.0156 0.15625-3.7109 0.8125-4.3164 3.2031 2.0859 0.11719 5.2852-0.91797 4.3164-3.2031z"/>
  <path d="m507.65 408.61c-22.926 9.7891-44.508 21.711-68.441 29.871-10.969 13.148-37.055 18.43-40.938 32.559 33.465-26.605 72.762-43.938 112.09-61.215-0.55078-0.62109-1.3555-1.0977-2.7109-1.2148z"/>
  <path d="m411.98 476.55c30.172-20.727 60.613-41.031 95.094-54.902-26.41 5.8125-54.504 21.117-76.598 39.379-5.9492 4.9258-18.816 4.293-18.496 15.523z"/>
  <path d="m394.42 435.45c9.793-8.1875 25.258-14.09 35.887-23.543-12.125 6.5742-29.598 12.855-35.887 23.543z"/>
  <path d="m410.74 437.38c1.6523-1.0312 0.54297-2.8164 1.0352-4.5586 6.7461-4.7656 14.648-7.6992 20.961-13.16-10.316 2.9688-19.098 8.3828-26.859 15.406 0.77344 1.2852 2.6719 3.4414 4.8633 2.3125z"/>
  <path d="m372.11 430.96c7.1836-2.1094 13.121-8.8359 18.496-13.5-6.4023 4.125-14.273 5.9062-18.496 13.5z"/>
  <path d="m390.61 417.46c1.3438-0.86719 2.6445-1.7969 3.8008-2.9531-1.2344 0.78516-2.5078 1.8281-3.8008 2.9531z"/>
  <path d="m246.88 431.73c7.5547-0.16797 15.527-6.2773 22.141-10.512-8.207 2.1875-16.547 4.1758-22.141 10.512z"/>
  <path d="m201.77 406.49c-4.0039 1.3672-7.7461 3.1914-10.914 5.8906 4.9219 0.074219 8.125-2.5859 10.914-5.8906z"/>
  <path d="m294.49 427.63c-4.4805 0.87891-8.9609 1.7695-11.93 5.0625 4.3906-1.0391 9.0547-1.6133 11.93-5.0625z"/>
  <path d="m228.41 428.71c3.2656-6.6914 11.008-6.25 15.629-10.797-6.0156 0.63281-19.812 4.1328-15.629 10.797z"/>
  <path d="m229.12 415.11c-6.5312 3.0469-14.164 4.3398-18.602 10.719 0.77734 0.96875 1.5625 1.9492 3.7227 2.0391 1.7344-8.3672 14.301-7.6641 14.879-12.758z"/>
  <path d="m126.97 396.01c0.59766-0.42578 3.4219-1.1484 1.7852-2.582-0.20703 1.0508-3.3516 1.2578-1.7852 2.582z"/>
  <path d="m148.45 414.68c6.1133-5.0117 14.23-6.832 20.57-11.469-7.3711 2.5312-17.031 5.418-20.57 11.469z"/>
  <path d="m119.29 400.84c1.5977 0.67188 3.6133-1.9258 2.4805-3.0234-1.0195 0.69922-2.543 0.58984-2.4805 3.0234z"/>
  <path d="m313.16 448.04c3.9258 2.9453 7.0273-1.6289 8.8242-4.5703-3.7227 0.28125-7.5664 0.37891-8.8242 4.5703z"/>
  <path d="m286.9 437.26c-0.87891 1.0195-3.2539 1.7031-2.043 3.7188 1.9727 0.75 4.0547-2.7891 2.043-3.7188z"/>
  <path d="m166.99 414.71c0.64453 1.6133 4.3555-0.82812 2.9219-2.3242-0.82812 0.98828-2.7227 0.31641-2.9219 2.3242z"/>
  <path d="m179.73 421.8c1.6641 0.80078 1.0039 0.66016 2.8438 0.64453 0-1.6133 1.7539-4.3516 0.59766-5.2422-1.1797 1.4727-3.4141 1.2852-3.4414 4.5977z"/>
  <path d="m194.18 128.16c11.809-6.6758 26.77-11.664 33.27-17.992-12.109 2.1484-22.246 11.16-33.27 17.992z"/>
  <path d="m596.19 140.98c-26.363-21.605-32.973-59.82-78.328-71.109-2.1602-0.33594-0.91406 4.7383-3.3086 4.0312-21.648-16.648-67.93-11.25-96.449-10.023-83.738 3.6016-172.43-1.6289-238.74 20.961 7.8359 2.4414 4.8945 16.711 0.54688 26.449-12.902 28.902-20.277 72.996-30.23 111.59-13.586 52.68-29.238 97.262-43.746 142.01-0.11719 0-7.5273 42.879-7.6445 46.867 0.90234 1.0977 0.003907 4.8164-0.30078 4.8555-0.11719 1.2539 17.871 3.0977 28.43 7.9961 0.92578 2.0273-0.64844 5.6055 2.1172 6.4688 15.617 4.1055 40.582 6.8047 56.52 9.2969 12.969 3.7969 62.242 12.332 83.273 18.273-4.2188-0.75 102.86 23.828 107.4 24.602 16.18 2.4414 34.895 11.199 31.238 4.7266 29.668-0.36328 72.289 19.902 91.926 3.6016 2.6641-0.24609 2.168 2.543 3.8516 1.4844 21.242-32.961 34.352-81.84 48.133-121.88 17.129-49.773 39.188-100.7 45.82-151.11 0.44922-3.4336 2.1797-7.3242 1.8945-10.938-1.9414-24.875 10.211-51.832-2.4062-68.156zm-37.621-39.699c-3.7695 0.15625-6.5234-4.2617-7.2422-7.6328 4.7734 1.0742 6.3516 4.1445 7.2422 7.6328zm-14.629-9.3125c-3.1758-0.4375-3.5742-2.6328-3.6406-5.0117 2.5508 0.82812 4.1641 2.25 3.6406 5.0117zm-245.43-15.266c-9.4766 2.0039-21.312 4.2891-32.531 0.95703 8.6914-2.0156 24.59-7.957 32.531-0.95703zm13.566 6.0859c-2.4922 7.918-13.531 2.2461-17.383 8.0078-3.7852-1.2031-9.1602-1.3945-11.816-3.3047 6.9453-5.5039 18.629-7.5469 29.199-4.7031zm-93.273-0.32422c-1.043 2.9336-6.5703 2.1953-9.043 0.32422 1.4062-3.2305 6.8164-2.7656 9.043-0.32422zm-83.922 210.64c-2.7773 24.73-14.41 54.242-23.895 75.926 3.6758-24.641 14.711-52.457 23.895-75.926zm35.254 136.68c8.0469 0.38672 20.172 2.3008 29.836 5.6055-8.2227 2.0703-20.727-2.8164-29.836-5.6055zm107.19 23.246c4.168-1.9609 9.1289 1.1367 14.488 2.1055-2.6953 2.4727-10.914-0.67969-14.488-2.1055zm163.8 29.562c0.46875-3.0742 5.375-4.4688 5.6406-1.1094-0.49609 2.5742-3.0977 1.793-5.6406 1.1094zm2.5469-13.781c0.8125-1.8086 2.168-2.75 4.6328-1.9375-0.99219 1.5312-2.2539 2.6289-4.6328 1.9375zm21.586-2.8477c-3.3828 7.5312-11.898 6.9102-18.336 9.582 4.7227-5.4023 10.43-9.2461 18.336-9.582zm1.4648 22.473c9.2109-2.1328 19.332-2.8398 28.191-5.5391-3.9688 9.9883-17.234 9.2578-28.191 5.5391zm55.211-121.45c1.1602-2.543 4.8672-1.0352 5.7188-4.0703-25.082 3.7852-49.527 21.941-73.332 32.934 19.512-6.418 38.562-20.301 60.316-25.738-19.867 22.664-51.18 27.109-74.652 44.016 27.406-1.7812 47.504-21.438 74.305-26.734-32.523 25.25-77.129 31.293-105.83 62.637-7.2422 3.2031-14.441 6.4844-21.887 9.3633 6.7266-5.3086 15.141-7.957 20.34-15.703-10.059-7.3633-18.523 6.9492-29.012 6.5469 2.1211-2.8164 4.9492-4.5312 7.9414-5.9648-8.7578-0.49219-17.41 5.875-25.426 9.1562 4.8984-4.3398 11.652-5.7461 15.754-11.363-10.891 2.5977-26.562 0.83984-35.125 12.348 7.1406 2.6602 9.5586-8.4609 17.695-6.7422-1.0039 4.1211-7.5703 5.4258-4.0391 9.8555 6.832-2.3633 17.309 0.33594 22.359 6.8828 3.1406 0.36328 3.6797-3.4492 7.1641-2.543-1.2266 1.7031-2.543 5.6055 0.41016 6.0703 8.8203-11.559 23.469-13.832 35.234-20.691 0.66797-2.207-3.9688-1.0703-4.1602-2.7383 17.801-12.773 36.559-24.008 57.941-31.074-8.7422 11.172-27.73 12.734-37.852 24.281 25.328-12.668 50.605-25.418 76.203-37.672 0.37891-2.0273-1.0469-2.918-0.66797-4.9453 2.7422-3.1133 6.5234-4.5977 11.223-4.6094-0.33203 10.062-8.2773 20.742-10.496 32.906 14.711-26.656 25.441-66.332 40.152-97.352-4.6094 33.012-18.375 64.793-27.293 96.102-5.5039 1.5898-9.418 7.1172-9.8828 14.492-2.418 6.4961-10.617 0.28516-11.879 7.4648 5.0742 2.8164 8.8945-1.4727 13.809-2.8281-0.875 13.703-10.871 26.023-18.098 34.766-2.375-0.78906-5.9883-0.78906-7.2695-2.2617 3.5117-7.0781 9.4414-10.305 12.5-18.094-7.5781 4.6484-22.238 17.203-22.668 25.945-8.8984 0.33594-18.574 3.4883-27.281 1.5625 4.4648-7.1172 10.977-10.977 18.555-13.121-1.7656 3.1367-5.3594 3.3438-6.5 7.4922 11.789 0.67187 18.715-11.703 21.324-22.652-4.4336-2.5195-9.2188 7.1797-14.117 1.5625 5.6992-10.32 19.848-7.1953 26.414-16.129-11.895-3.3047-18.574 14.84-34.172 10.77 12.57-7.5156 27.766-18.727 42.812-17.176 2.2188-1.6289 3.2148-5.2031 3.9102-9.2734-26.035 14.902-61.32 21.824-81.207 49.102 0.28125 3.0742 5.4023 3.1016 5.0898 6.5469-20.184 2.4531-42.758-5.2188-65.754-10.809-79.57-19.32-180.31-34.418-254.69-58.66-5.0312-1.668-9.6445-4.2773-11.574 0.93359 3.2188-14.633 4.4922-33.449 11.816-43.977 25.395-63.695 38.07-153 62.551-224.49 2.0273-5.9023 7.6953-10.539 14.566-14.555-3.4336 2.0781-6.9453 3.9375-10.652 5.2695 3.1875-7.8906 2.1836-23.441 7.8281-31.719 6.332-9.2734 23.605-1.2539 35.246 0.25781 17.344 2.2461 36.863-0.34766 56.934 2.207 64.496 8.2266 144.16 18.402 206.48 33.914 33.531 8.3438 79.152 10.926 90.512 30.816l-1.1719 5.1133c17.652 57.859-31.859 143.9-49.012 201.83-13.777 6.0039-26.41 13.82-42.117 16.738 10.852-8.8477 24.367-13.445 35.5-21.828 0.45703-1.9062-0.09375-3.1797-0.79688-4.3672zm-207.99-276.59c0.035156-2.7383 3.543-2.5039 4.5039-1.3672 0 2.8398-2.3867 1.8984-4.5039 1.3672zm11.016-1.0859c-0.32031-1.2656-2.3086-1.4727-1.6289-3.3594 3.332-1.9375 7.8281-2.0273 12.414-1.9648-0.74219 3.3359-6.7656 4.6523-10.785 5.3242zm2.375 5.3359c0.26172-4.4961 3.2539-4.6484 6.8555-3.8242 1.4766 4.7266-4.5977 6.9727-6.8555 3.8242zm11.793-4.4961c2.0547-3.4492 3-8.6641 7.7656-7.8008 0.58984 4.7148-2.1758 10.371-7.7656 7.8008zm9.5664 10.551c-0.80078-4.3672 6.5781-5.0898 10.137-2.4648-0.84375 4.4805-6.6836 4.6992-10.137 2.4648zm15.355 3.5156c1.5586-3.9922 4.9883-4.9844 8.9531-5.1523 0.74609 1.7578-0.59766 5.3594-1.5586 6.832-2.0273 0.66016-4.8555 1.5-7.0898-0.42578 0.24219-0.63672 0.10938-1.0352-0.30469-1.2539zm12.566 5.2539c1.9375-4.6758 6.25-5.5664 11.352-5.1914 0.76562 2.8398-1.2266 5.0234-2.6875 6.5625-3.2969 0.25781-5.3047-0.089844-8.6641-1.3711zm16.184 2.4805c5.0352-4.6367 11.777-6.5742 19.527-6.9102-2.7461 7.9688-11.945 11.535-19.527 6.9102zm201.37 53.699c-3.668-5.168-8.1211-9.8398-12.891-14.309-2.4297 2.0781-10.836 1.1484-13.34-1.8477 2.6836-2.6992 7.0547-2.7266 10.09-4.8828-6.2891-1.9766-11.574 4.3281-18.754 3.5-1.043-0.80078-1.1523-2.1836-1.625-3.3594-4.043-0.59375-10.129 1.707-11.246-3.1641-4.4922 0.99609-11.559 0.72266-16.883-2.0391-0.33203-0.77344-0.40234-1.7031 0.078126-2.9844-4.582 0.28516-9.543 3.8242-14.992 0.16797 0.60938-2.3906 2.7031-2.4023 3.875-3.9023-5.8672 1.0352-12.578 7.1406-19.5 1.5352 0.20312-3.0352 2.832-2.1953 3.8867-3.8984-5.0508 0.67188-10.953 3.5273-17.277-0.34766 3.8594-5.7461 12.023-4.6484 16.504-9.4023-10.293 1.4844-21.297 12.605-37.105 5.3086 0.46484-3.4102 3.8594-2.1445 5.1523-4.2109-5.0273-1.4844-13.406 7.0664-18.672 0.51562 4.207-4.9219 12.324-3.6289 15.934-9.5195-11.066 1.1484-23.414 14.723-39.512 5.3477 3.8633-6.5234 13.004-4.625 17.328-10.41-0.12891-0.89062-0.56641-1.5898-1.3164-2.0938-10.125 4.5859-21.094 15.109-34.473 9.4922 5.7891-5.2578 14.598-5.707 20.43-10.902-3.2969-1.8867-6.5742 2.957-11.145 1.6406 0.91406-4.3516 5.9414-5.8516 5.3047-10.152-11.691 1.8086-18.996 10.602-31.32 11.402-0.46484-5.5156 5.207-7.6445 7.8438-10.77 0.035156-2.1445-0.49219-3.9258-2.5039-4.7656-6.3828 4.832-11.68 11.391-21.133 11.34-0.85547-6.1875 8.0195-12.891 4.7148-18.066-5.8125 0.82812-5.7734 10.965-12.957 9.6094-0.78906-2.7656 4.2969-9.1445 0.054687-10.758-5 4.2227-11.227 10.512-18.211 9.0156 1.0117-5.6328 6.6016-3.9766 9.3398-6.8438-1.9531-2.4414-5.3945 1.3438-7.5273-1.125 3.125-8.0312 18.199-3.5391 25.609-7.3242-25.273-4.0156-51.238 1.668-75.297-0.41406 2.8281-11.547 34.441-7.8516 48.52-8.0859 50.398-0.86719 106.64-6.1367 156.6 3.3828 0.80469 1.6133 0.074219 4.1836 1.1094 5.6445 30.676 18.105 61.074 40.074 80.504 66.82-0.09375 1.9102-0.99609 2.5586-1.4766 3.8477 1.5664 1.4844 2.4141 0.39844 4.418 1.6016 1.3398 4.418 4.5391 10.102 1.8633 15.406z"/>
  <path d="m570.11 132.05c-3.3867 0.30859-7.7734 3.1133-8.8203 4.5703 2.2266-2.2734 8.7891-1.332 8.8203-4.5703z"/>
  <path d="m562.35 208.06c-3.1016 2.8164-9.4414 4.6094-10.73 7.7227 3.6289-1.9766 9.0781-5.1797 10.73-7.7227z"/>
  <path d="m527.09 268.23c11.188-6.9883 23.863-11.637 33.965-20.367-11.273 3.2539-25.461 12.695-33.965 20.367z"/>
  <path d="m528.8 255.46c2.0625-1.6289 6.7188-3.2305 6.6758-5.6562-1.7891 2.0781-6.8125 3.0977-6.6758 5.6562z"/>
  <path d="m490.76 338.34c16.699-9.0781 33.938-17.305 49.508-28.191-17.832 3.668-32.82 18.586-48.816 27.766-0.35156-0.054687-0.6875-0.078125-0.69141 0.42578z"/>
  <path d="m490.44 350.23c-3.9258 1.2539-7.3633 3.2812-10.785 5.332 4.043-0.55469 9.5312-2.918 10.785-5.332z"/>
  <path d="m445.23 401.57c1.4062-1.3945 3.707-1.3438 4.8906-3.0859-2.4297-0.74219-5.293 1.8672-4.8906 3.0859z"/>
  <path d="m359.25 398.11c-0.69922-0.15625-3.1914-1.0312-4.5469-1.0469-16.16-0.039062-30.676 34.871-8.5586 37.543 13.074 1.582 36.648-31.383 13.105-36.496zm-12.004 8.0391c0.28125-2.6602 2.1445-2.8008 3.7578-3.3438 0.69922 0.38672 0.66797 1.2148 1.4453 1.5391-1.4453 1.0547-2.4453 2.832-5.2031 1.8047zm6.0742 12.746c-5.6797 1.6133-4.207-6.4961 0.51563-2.2734-0.17188 0.75-0.34766 1.5117-0.51563 2.2734zm8.4023 2.5195c0.69922-1.8984 0.5-3.2422 0.46875-4.6875-4.4141-2.1055-4.7266-6.7656-7.9844-9.5977 1.5508-3.5 6.457-0.58203 8.0938 1.2539-0.035156-4.3125-4.4297-3.9375-7.7578-5.3594 8.2266-12.477 21.184 15.168 7.1797 18.391z"/>
  <path d="m381.78 433.16c4.9688-0.28516 10.539-7.0742 14.887-10.645-5.1953 3.1797-11.652 4.3555-14.887 10.645z"/>
  <path d="m263.63 434.35c0.51953 0.80078 1.8633 1.0977 3.2812 1.3438 1.0039-1.5117 1.4336-3.9258 2.4375-5.4258 6.1758-0.77344 11.059-3.6016 15.41-7.2578-7.9414 2.3516-15.691 5-21.129 11.34z"/>
  <path d="m303.83 441.72c0.76562 0.33594 0.36328 1.3945 0.74609 1.9766 4.4805-1.043 8.4727-5.6211 11.664-8.1797-4.0977 2.125-9.9453 1.4766-12.41 6.2031z"/>
  <path d="m322.89 452.64c4.8828 4.0312 8.4219-4.5859 9.3398-6.8438-3.6875 1.3867-8.0273 1.7031-9.3398 6.8438z"/>
  <path d="m317.59 252.79c28.27 20.727 54.332-6.9609 61-33.965-2.8516-10.719-7.9648-22.59-10.02-32.195 7.8164 3.6953 10.09 10.875 12.691 17.848-0.88672-5.7227-1.3711-9.7773-4.1055-13.496-35.273-48.059-101.15 31.316-59.566 61.809zm17.242-28.387c0.82422-3.0742 3.543-3.1367 5.7109-4.082 1.1875 2.8828-3.8906 5.918-5.7109 4.082zm21.762 12.156c-0.94141-1.8867 0.72266-4.6094 3.1797-3.4727-0.30078 2.3594-1.1094 3.9219-3.1797 3.4727zm-15.199-43.562c-1.2109-2.9961-4.4531-0.53125-6.957-0.99609 7.7969-7.168 22.074-5.7852 30.613 2.207 12.57 19.902-4.7305 36.562-21.543 39.363 0.39844-5.8125 6.8672-8.0352 10.82-10.707-1.5742-8.7578-6.793-13.02-18.145-14.902 1.4336-3.668 5.6094-2.957 6.9336-6.793-3.9141-4.1328-8.2148 3.7695-13.242 2.957-1.1758-8.6758 9.2344-5.4102 11.52-11.129zm0.82812 33.098c0.84375-1.7422 1.7656-3.3945 4.1875-2.6328-0.84766 1.7305-2.25 2.6094-4.1875 2.6328z"/>
  <use x="70" y="644" xlink:href="#u"/>
  <use x="90.550781" y="644" xlink:href="#b"/>
  <use x="104.359375" y="644" xlink:href="#a"/>
  <use x="123.347656" y="644" xlink:href="#f"/>
  <use x="142.242188" y="644" xlink:href="#c"/>
  <use x="155.628906" y="644" xlink:href="#a"/>
  <use x="174.617188" y="644" xlink:href="#i"/>
  <use x="204.410156" y="644" xlink:href="#h"/>
  <use x="224.453125" y="644" xlink:href="#e"/>
  <use x="252.453125" y="644" xlink:href="#g"/>
  <use x="274.121094" y="644" xlink:href="#f"/>
  <use x="293.015625" y="644" xlink:href="#t"/>
  <use x="302.613281" y="644" xlink:href="#a"/>
  <use x="321.601562" y="644" xlink:href="#b"/>
  <use x="335.414062" y="644" xlink:href="#s"/>
  <use x="345.007812" y="644" xlink:href="#e"/>
  <use x="70" y="672" xlink:href="#r"/>
  <use x="82.183594" y="672" xlink:href="#b"/>
  <use x="95.992188" y="672" xlink:href="#d"/>
  <use x="115.226562" y="672" xlink:href="#q"/>
  <use x="154.152344" y="672" xlink:href="#c"/>
  <use x="167.535156" y="672" xlink:href="#p"/>
  <use x="187.46875" y="672" xlink:href="#a"/>
  <use x="216.207031" y="672" xlink:href="#o"/>
  <use x="239.640625" y="672" xlink:href="#d"/>
  <use x="258.878906" y="672" xlink:href="#n"/>
  <use x="278.8125" y="672" xlink:href="#m"/>
  <use x="308.492188" y="672" xlink:href="#l"/>
  <use x="329.015625" y="672" xlink:href="#b"/>
  <use x="342.820312" y="672" xlink:href="#d"/>
  <use x="362.058594" y="672" xlink:href="#k"/>
  <use x="371.65625" y="672" xlink:href="#a"/>
  <use x="390.648438" y="672" xlink:href="#j"/>
  <use x="407.242188" y="672" xlink:href="#c"/>
 </g>
</svg>
