<?xml version="1.0" encoding="UTF-8"?>
<svg width="700pt" height="700pt" version="1.1" viewBox="0 0 700 700" xmlns="http://www.w3.org/2000/svg" xmlns:xlink="http://www.w3.org/1999/xlink">
 <g>
  <path d="m423.88 482.73c-2.375-92.871 9.5469-183.8-22.355-248.46-8.3789-16.98-21.629-35.738-25.289-54.285-7.3906-37.426-6.9219-84.621-1.6758-125.55 4.5312-35.332-24.938-26.059-48.328-23.16-17.461 11.301-3.5664 30.621-1.9805 43.348 2.0625 16.543-0.64844 34.832-0.84375 52.426-0.20703 18.43-0.85547 36.602-2.5938 54.387-2.3516 24.125-14.375 46.52-24.73 69.148-34.281 74.957-18.133 183.46-11.273 263.41 34.984 24.734 103.01 22.539 136.81 2.2305 5.7188-8.4258 2.6055-19.934 2.2578-33.492zm-59.336-447.29c-6.0312 6.4297-20.621 0.50391-30.359 0.37109 6.6484-3.375 23.449-5.4805 30.359-0.37109zm-37.969 4.4688c10.914-3.9297 32.898 10.23 41.738 1.4844 0.27344 0.011719 0.54688 0.027344 0.81641 0.042969 1.8477 9.7773 0.72266 27.52-6.2344 31.219-6.8594 3.6562-23.762 2.7227-30.32-0.44141-7.1602-3.4648-19.102-27.598-6-32.305zm-39.508 351.63c-2.5273 3.6914-4.4023 8.1016-5.6523 13.223-4.6719-4.0938 0.35156-19.238 5.6523-13.223zm52.355-12.684c13.43-16.633 16.805 7.7969 0.59375 11.512-3.1602-2.4297 0.8125-7.1953-0.59375-11.512zm-5.1289-3.5664c0.011719-0.40234-0.48047-0.34766-0.79688-0.44922-2.9609-6.4414 6.4727-14.762 10.691-8.0234-2.4023 3.8242-4.1328 8.3984-9.8945 8.4727zm-8.4023 18.395c-6.707-3.9023 7.8164-17.348 9.2617-11.789 1.3125 5.0312-5.1797 9.6719-9.2617 11.789zm-1.6523 15.074c-6.8594-6.9258 4.625-13.508 10.602-13.766 1.9883 7.4688-4.0195 13.039-10.602 13.766zm0.82422-52.016c0.33203-2.6133 2.7109-2.918 7.1523-3.2969 25.906-2.2148-9.0742 18.531-7.1523 3.2969zm-3.4844 26.051c-5.4102-1.293-1.0078-18.324 1.8984-19.578 6.4766-2.7891 8.7891 22.125-1.8984 19.578zm-15.207 15.555c4.0312-3.6406 6.7188-10.953 11.73-12.066 6.7383 9.9492-8.0391 26.996-11.73 12.066zm-2.6172 2.7227c3.8633 2.2109 4.3555 14.246-1.2422 15.102-2.375-2.7461-4.5586-14.188 1.2422-15.102zm9.0117-29.434c4.3008 7.5312-3.3438 23.645-10.23 21.984-8.8867-2.125 3.0898-23.375 10.23-21.984zm4.5742 35.926c2.9805 9.3984-6.5234 20.715-13.984 15.629 4.9453-4.8945 6.0039-14.125 13.984-15.629zm-15.75-41.457c-3.293-4.2891 6.1562-13.789 13.367-11.973 10.113 6.582-8.6328 18.148-13.367 11.973zm1.707 6.2422c-0.14453 2.0117-1.2812 2.9062-3.0391 3.1133-2.8906-2.0391 0.64844-6.0039 3.0391-3.1133zm6.3047 56.516c-0.17187 7.4609-3.9766 18.84-13.121 14.852-0.58203-1.5508 0.15234-4.2852-0.93359-5.3828-1.332-1.2695-3 1.0078-4.0898-0.23047 5.4219-3.7773 8.5234-10.152 18.145-9.2383zm-14.375 0.44141c-2.7812-3.293-4.0195-11.469-0.027343-14.359-0.66797 4.5312 6.8633 10.895 0.027343 14.359zm-5.1797-17.516c-7.0625-4.1992-3.5625-19.219 4.6719-17.773 2.457 6.0508-1.1055 14.363-4.6719 17.773zm-1.4609-25.492c-6.8438-0.95312-2.0938-18.828 5.875-17.305 3.418 5.3398 0.085937 18.133-5.875 17.305zm-3.6016 28.086c-0.12891 1.3086-1.0234 1.7461-2.543 1.5-0.078125-1.6797 0.55859-2.5547 2.1797-2.3359-0.097656 0.46484 0.050781 0.72656 0.36328 0.83594zm2.25 3.8164c4.6484 3.7539 3.1914 18.109-3.375 16.613-5.2656-1.1836-0.67188-15.871 3.375-16.613zm1.3008 20.98c-0.33594 4.1172-0.050781 8.9219-1.8594 11.379-6.7031-1.2734-5.0391-13.645 1.8594-11.379zm-4.582 23.523c0.3125-2.2344-1.293-4.7812-0.042969-6.5625 0.59766-2.4648 3.3945 0.15625 4.9727-0.95312 1.9883-1.6875 2.2773-5.2695 3.3164-8.0195 23.418 8.4375 19.402-24.059 30.555-33.566 12.348 0.19141 12.336-9.0117 17.773-17.465 4.1484-6.4531 17.328-9.7344 16.32-20.832-0.42969-4.7891-9.3242-8.9023-9.4297-14.875-0.10547-5.9648 8.2305-10.77 12.965-11.988-14.582 8.7656 2.5859 24.602 8.9727 8.2812 8.4219 11.137-4.5586 32.156-0.59766 47.938 2.0273-12.32 11.895-36.25 7.5469-47.551-1.6289-4.2383-8.5625-13.324-13.156-14.254-9.4141-1.9141-10.941 7.875-17.32 9.2891-3.8242 0.85156-6.5234-2.4648-9.6719-2.9961-4.4297-0.73828-8.2812 2.3203-12.852 2.5703-12.82 0.71094-22.719-1.3711-26.902 12.047-9.043 0.89453-11.184 9.4922-16.004 15.102-1.332-24.102-0.76563-54.164 5.4492-76.367 27.625 11.344 73.84 15.367 103.41 5.7188 10.965 43.938-2.3086 108.29 1.9805 157.13 0.20703 2.3242 1.6914 4.7656 1.25 7.0391-1.4727 7.543-23.109 10.215-31.309 10.16-25.926-0.17188-62.207-7.0898-77.227-19.844zm79.375-108.36c0.011719 2.6133-0.78906 4.3359-3.1094 4.3398-0.85547-1.9922 0.66797-4.6328 3.1094-4.3398zm-50.68 167.75c-6.125-1.8438-20.531-6.9844-23.527-11.961-5.6914-9.4453-0.35156-26.141-3.2383-37.902 27.934 6.3672 74.621 24.617 104 9.8516 10.68-5.3711 6.5-22.77 6.7305-40.215 0.33594-25.52-0.042969-49.184 0.75-72.941 0.33203-9.8555 1.875-20.789 0.92578-31.523-0.77734-8.7969-0.40234-33.57-5.3945-35.965-4.6094-2.2109-19.477 5.0508-24.523 6.0195-26.918 5.1797-62.172-0.41016-81.316-12.281 4.1094-37.645 25.469-65.535 35.801-98.879 10.953-35.359-0.66797-81.523 7.8164-119.28 11.043 2.793 24.539 2.75 33.969 1.0547 0.27344 0.015626 0.54297 0.035157 0.81641 0.042969-1.2773 48.395-0.77344 97.586 17.781 130.95 10.965 19.73 20.945 40.266 26.789 64.211 16.906 69.188 7.5547 157.48 11.043 237.99-24.645 13.855-70.188 22.328-108.43 10.832z"/>
  <path d="m332.58 64.832c6.4922-0.42188-1.3906-9.9844 0.74609-13.492 3.0469 8.9492 6.5312 16.082 17.125 9.1445 0.17969-3.6562 0.71094-7.6289-1.1133-9.4922-3.9609-0.37109-6.5195 0.82422-9.5156 1.5273-1.2422-3.2891-4.1172-6.4414-6.8359-2.4297-1.2148-0.33594-1.3398-1.6445-3.2031-1.4062-2.4766 4.0469-1.5664 16.434 2.7969 16.148z"/>
  <path d="m338.43 114.76c6.2539 3.0312 0.99219 8.7148 0.027343 14.352 0.33203 1.5195 2.6875 1.2227 2.6992 3.0234-0.11328 5.0742-3.0391 7.0156-3.1289 12.125 5.5938 7.8555-2.8398 21.543 4.6211 27.727-1.1406 3.3867-4.0195 7.0234-3.8594 10.445 0.14063 1.6875 2.9961 0.94141 3.1367 2.6367-1.125 1.1992-2.0625 2.6133-1.9258 5.2266 4.8828-0.19531 4.8281-5.8984 7.0625-9.043-2.0391-0.48047-2.793 2.0938-4.1562 1.0039 0.98438-8.5898 5.8359-12.863 8.0742-20.047-2.7656-1.2539-2.7734 4.0547-5.9453 3.7695-3.332-7.2344 6.043-13.363 6.7891-18.895-4.6211-0.82422-3.3945 4.8906-7.6289 4.4961 0.84375-8.7578 7.7227-13.055 8.8945-20.008-5.8789 0.085937-5.0625 7.6484-9.918 8.8828 1.8867-10.207 8.2109-17.711 10.074-26.504-2.9414-1.0977-3.3281 2.9219-5.0195 1.7734 0.3125-7.125 6.8477-11.609 5.875-17.305-6.2109 1.1641-5.3086 10.27-10.148 12.969 1.0195-9.8633 6.2109-15.055 8.668-23.301-9.7383-10.32-12.449 8.0117-15.617 15.535 3.2812 2.457 2.4297 6.2344 1.4258 11.137z"/>
  <path d="m363.66 192.41c-7.7578 3.793-20.332 11.375-33.086 5.1406-0.92578 1.6367 0.42969 4.1602 0.90625 5.7891 12.902 0.29297 31.797 4.2578 34.965-9.5469-0.77344-0.59766-2.1016-1.7148-2.7852-1.3828z"/>
  <path d="m302.54 282.11c0.89063-29.164 24.359-46.105 28.312-74.691-0.54297-0.027343-1.0859-0.0625-1.6367-0.089843-6.3203 26.195-30.238 46.164-26.676 74.781z"/>
  <path d="m289.79 312.56c0.13281 6.1445 9.2891 6.1211 14.828 6.1445-0.87891-5.0938-11.059-7.4609-14.828-6.1445z"/>
  <path d="m387.48 317.96c-6.0312 0.46875-6.4688 18.766-2.0547 22.438 2.3398-5.2383 2.6484-16.75 2.0547-22.438z"/>
  <path d="m369.56 323.11c2.0664 1.793 7.043 0.71875 8.6523-0.75-0.60156-3.9688-8.7266-4.082-8.6523 0.75z"/>
  <path d="m313.2 319.18c0.95312 5.6445 10.09 5.9648 16.078 5.8125-1.2109-5.1836-11.438-7.457-16.078-5.8125z"/>
  <path d="m342.4 324.9c-0.039063 1.8242 17.148 4.6992 18.508-1.0352-3.457-1.8906-18.398-3.8008-18.508 1.0352z"/>
  <path d="m385 377.68c2.1953-3.1914 2.8281-10.988 1.2227-14.695-5.2031-0.67578-5.3711 14.195-1.2227 14.695z"/>
  <path d="m385.73 394.12c-5.9648-0.125-4.4414 15.16-1.7695 17.121 2.6289-3.25 3.5742-12.973 1.7695-17.121z"/>
  <path d="m383.59 447.71c1.3555-4.8984 2.5469-13.973 1.4453-18.781-5.4688 0.24219-6.4141 17.586-1.4453 18.781z"/>
  <path d="m384.78 463.35c2.2109-0.90625 2.4141-5.7461 0.81641-7.332-4.3477-1.5312-4.1602 7.7539-0.81641 7.332z"/>
  <path d="m288.36 464.58c4.4414 2.2578 12.125 3.6289 17.414 3.832-1.8438-3.6992-15.367-10.277-17.414-3.832z"/>
  <path d="m376.92 471.93c-0.89453-1.3008-5.3047-1.6914-4.9727 0.95312 0.69531 2.0391 5.3164 1.9023 4.9727-0.95312z"/>
  <path d="m320.84 470.48c0.78516 4.8945 13.512 3.8789 14.762 0-4.1211-0.58594-11.973-2.9844-14.762 0z"/>
  <path d="m363.7 473.66c-4.4727 1.25-12.566-4.5195-14.828 1.2383 4.1211 1.9023 14.039 6.6758 14.828-1.2383z"/>
  <path d="m306.13 499.18c-3.7422-1.5664-1.4336-8.5586-3.8867-11.285-6.7969 7.6445 0.26172 22.359 9.3633 23.48 0.21875-4.0703 0.3125-14.438-2.6875-18.188-3.0508 0.57812-0.21094 5.0703-2.7891 5.9922z"/>
  <path d="m321.78 512.76c0.4375-0.51562 0.74609-1.1914 1.3164-1.5664-3.0117-4.1562-1.6797-12.027-2.3203-17.344-3.7031 2.1484-6.875 19.273 1.0039 18.91z"/>
  <path d="m330.54 495.2c-2.3633-0.21875-4.0586 19.098 1.7812 19.777 0.29688-3.0508 2.3164-19.402-1.7812-19.777z"/>
  <path d="m342.11 515.93c1.7461-2.8164 0.96484-8.4727 1.9023-12.191-3.9297 0.5-6.7656 10.965-1.9023 12.191z"/>
  <path d="m348.23 508.89c-1.7695 2.4805-2.2852 9.4805 1.0469 10.719 1.668-2.7422 0.42578-7.9922 0.17969-10.652-0.41016-0.027344-0.81641-0.050782-1.2266-0.066407z"/>
  <use x="70" y="644" xlink:href="#u"/>
  <use x="90.550781" y="644" xlink:href="#b"/>
  <use x="104.359375" y="644" xlink:href="#a"/>
  <use x="123.347656" y="644" xlink:href="#f"/>
  <use x="142.242188" y="644" xlink:href="#c"/>
  <use x="155.628906" y="644" xlink:href="#a"/>
  <use x="174.617188" y="644" xlink:href="#i"/>
  <use x="204.410156" y="644" xlink:href="#h"/>
  <use x="224.453125" y="644" xlink:href="#e"/>
  <use x="252.453125" y="644" xlink:href="#g"/>
  <use x="274.121094" y="644" xlink:href="#f"/>
  <use x="293.015625" y="644" xlink:href="#t"/>
  <use x="302.613281" y="644" xlink:href="#a"/>
  <use x="321.601562" y="644" xlink:href="#b"/>
  <use x="335.414062" y="644" xlink:href="#s"/>
  <use x="345.007812" y="644" xlink:href="#e"/>
  <use x="70" y="672" xlink:href="#r"/>
  <use x="82.183594" y="672" xlink:href="#b"/>
  <use x="95.992188" y="672" xlink:href="#d"/>
  <use x="115.226562" y="672" xlink:href="#q"/>
  <use x="154.152344" y="672" xlink:href="#c"/>
  <use x="167.535156" y="672" xlink:href="#p"/>
  <use x="187.46875" y="672" xlink:href="#a"/>
  <use x="216.207031" y="672" xlink:href="#o"/>
  <use x="239.640625" y="672" xlink:href="#d"/>
  <use x="258.878906" y="672" xlink:href="#n"/>
  <use x="278.8125" y="672" xlink:href="#m"/>
  <use x="308.492188" y="672" xlink:href="#l"/>
  <use x="329.015625" y="672" xlink:href="#b"/>
  <use x="342.820312" y="672" xlink:href="#d"/>
  <use x="362.058594" y="672" xlink:href="#k"/>
  <use x="371.65625" y="672" xlink:href="#a"/>
  <use x="390.648438" y="672" xlink:href="#j"/>
  <use x="407.242188" y="672" xlink:href="#c"/>
 </g>
</svg>
