<?xml version="1.0" encoding="UTF-8"?>
<svg width="700pt" height="700pt" version="1.1" viewBox="0 0 700 700" xmlns="http://www.w3.org/2000/svg" xmlns:xlink="http://www.w3.org/1999/xlink">
 <defs>
  <symbol id="n" overflow="visible">
   <path d="m29.312-1.75c-1.5117 0.78125-3.0898 1.3711-4.7344 1.7656-1.6367 0.40625-3.3398 0.60938-5.1094 0.60938-5.3125 0-9.5273-1.4844-12.641-4.4531-3.1055-2.9688-4.6562-7-4.6562-12.094s1.5508-9.125 4.6562-12.094c3.1133-2.9688 7.3281-4.4531 12.641-4.4531 1.7695 0 3.4727 0.19922 5.1094 0.59375 1.6445 0.39844 3.2227 0.99219 4.7344 1.7812v6.5938c-1.5312-1.0391-3.0391-1.8008-4.5156-2.2812-1.4805-0.48828-3.0391-0.73438-4.6719-0.73438-2.9375 0-5.2461 0.94531-6.9219 2.8281-1.6797 1.875-2.5156 4.4648-2.5156 7.7656 0 3.293 0.83594 5.8828 2.5156 7.7656 1.6758 1.875 3.9844 2.8125 6.9219 2.8125 1.6328 0 3.1914-0.23828 4.6719-0.71875 1.4766-0.48828 2.9844-1.2539 4.5156-2.2969z"/>
  </symbol>
  <symbol id="e" overflow="visible">
   <path d="m21.453-17.406c-0.67969-0.3125-1.3516-0.53906-2.0156-0.6875-0.65625-0.15625-1.3203-0.23438-1.9844-0.23438-1.9688 0-3.4844 0.63281-4.5469 1.8906-1.0547 1.2617-1.5781 3.0703-1.5781 5.4219v11.016h-7.6562v-23.922h7.6562v3.9219c0.97656-1.5625 2.1016-2.7031 3.375-3.4219 1.2812-0.71875 2.8125-1.0781 4.5938-1.0781 0.25 0 0.52344 0.011719 0.82812 0.03125 0.30078 0.023438 0.73438 0.070312 1.2969 0.14062z"/>
  </symbol>
  <symbol id="d" overflow="visible">
   <path d="m27.562-12.031v2.1875h-17.891c0.1875 1.793 0.83203 3.1367 1.9375 4.0312 1.1133 0.89844 2.6719 1.3438 4.6719 1.3438 1.6016 0 3.25-0.23438 4.9375-0.70312 1.6875-0.47656 3.4219-1.2031 5.2031-2.1719v5.8906c-1.8047 0.6875-3.6094 1.2031-5.4219 1.5469-1.8125 0.35156-3.6211 0.53125-5.4219 0.53125-4.3359 0-7.7031-1.0977-10.109-3.2969-2.3984-2.207-3.5938-5.2969-3.5938-9.2656 0-3.9062 1.1758-6.9727 3.5312-9.2031 2.3633-2.2383 5.6094-3.3594 9.7344-3.3594 3.7578 0 6.7695 1.1367 9.0312 3.4062 2.2578 2.2617 3.3906 5.2812 3.3906 9.0625zm-7.8594-2.5312c0-1.457-0.42969-2.6289-1.2812-3.5156-0.84375-0.89453-1.9492-1.3438-3.3125-1.3438-1.4922 0-2.6992 0.41797-3.625 1.25-0.91797 0.83594-1.4922 2.0391-1.7188 3.6094z"/>
  </symbol>
  <symbol id="a" overflow="visible">
   <path d="m14.391-10.766c-1.5938 0-2.793 0.27344-3.5938 0.8125-0.80469 0.54297-1.2031 1.3398-1.2031 2.3906 0 0.96875 0.32031 1.7305 0.96875 2.2812 0.64453 0.54297 1.5469 0.8125 2.7031 0.8125 1.4375 0 2.6445-0.51562 3.625-1.5469 0.98828-1.0312 1.4844-2.3203 1.4844-3.875v-0.875zm11.688-2.8906v13.656h-7.7031v-3.5469c-1.0312 1.4492-2.1875 2.5078-3.4688 3.1719s-2.8398 1-4.6719 1c-2.4805 0-4.4961-0.72266-6.0469-2.1719-1.543-1.4453-2.3125-3.3203-2.3125-5.625 0-2.8125 0.96094-4.8672 2.8906-6.1719 1.9375-1.3125 4.9688-1.9688 9.0938-1.9688h4.5156v-0.60938c0-1.207-0.48047-2.0938-1.4375-2.6562-0.94922-0.5625-2.4375-0.84375-4.4688-0.84375-1.6367 0-3.1562 0.16797-4.5625 0.5-1.4062 0.32422-2.7188 0.8125-3.9375 1.4688v-5.8281c1.6445-0.40625 3.2891-0.70703 4.9375-0.90625 1.6562-0.20703 3.3047-0.3125 4.9531-0.3125 4.3203 0 7.4375 0.85547 9.3438 2.5625 1.9141 1.6992 2.875 4.4609 2.875 8.2812z"/>
  </symbol>
  <symbol id="c" overflow="visible">
   <path d="m12.031-30.719v6.7969h7.875v5.4688h-7.875v10.141c0 1.1172 0.21875 1.8711 0.65625 2.2656 0.4375 0.38672 1.3125 0.57812 2.625 0.57812h3.9375v5.4688h-6.5625c-3.0234 0-5.1641-0.62891-6.4219-1.8906-1.2617-1.2578-1.8906-3.3984-1.8906-6.4219v-10.141h-3.7969v-5.4688h3.7969v-6.7969z"/>
  </symbol>
  <symbol id="b" overflow="visible">
   <path d="m19.953-20.422v-12.812h7.6875v33.234h-7.6875v-3.4531c-1.0547 1.4062-2.2148 2.4375-3.4844 3.0938-1.2734 0.65625-2.7422 0.98438-4.4062 0.98438-2.9492 0-5.3711-1.1719-7.2656-3.5156-1.8867-2.3438-2.8281-5.3594-2.8281-9.0469s0.94141-6.7031 2.8281-9.0469c1.8945-2.3438 4.3164-3.5156 7.2656-3.5156 1.6562 0 3.1172 0.33594 4.3906 1 1.2812 0.65625 2.4453 1.6836 3.5 3.0781zm-5.0469 15.484c1.6445 0 2.8945-0.59766 3.75-1.7969 0.86328-1.1953 1.2969-2.9297 1.2969-5.2031 0-2.2812-0.43359-4.0195-1.2969-5.2188-0.85547-1.1953-2.1055-1.7969-3.75-1.7969-1.625 0-2.8711 0.60156-3.7344 1.7969-0.85547 1.1992-1.2812 2.9375-1.2812 5.2188 0 2.2734 0.42578 4.0078 1.2812 5.2031 0.86328 1.1992 2.1094 1.7969 3.7344 1.7969z"/>
  </symbol>
  <symbol id="i" overflow="visible">
   <path d="m16.406-4.9375c1.6328 0 2.8828-0.59766 3.75-1.7969 0.86328-1.1953 1.2969-2.9297 1.2969-5.2031 0-2.2812-0.43359-4.0195-1.2969-5.2188-0.86719-1.1953-2.1172-1.7969-3.75-1.7969-1.6367 0-2.8906 0.60547-3.7656 1.8125-0.875 1.1992-1.3125 2.9336-1.3125 5.2031 0 2.2617 0.4375 3.9961 1.3125 5.2031 0.875 1.1992 2.1289 1.7969 3.7656 1.7969zm-5.0781-15.484c1.0508-1.3945 2.2188-2.4219 3.5-3.0781 1.2812-0.66406 2.7539-1 4.4219-1 2.9453 0 5.3672 1.1719 7.2656 3.5156 1.8945 2.3438 2.8438 5.3594 2.8438 9.0469s-0.94922 6.7031-2.8438 9.0469c-1.8984 2.3438-4.3203 3.5156-7.2656 3.5156-1.668 0-3.1406-0.33594-4.4219-1s-2.4492-1.6914-3.5-3.0781v3.4531h-7.6562v-33.234h7.6562z"/>
  </symbol>
  <symbol id="h" overflow="visible">
   <path d="m0.53125-23.922h7.6562l6.4219 16.234 5.4688-16.234h7.6562l-10.062 26.188c-1.0117 2.6641-2.1953 4.5234-3.5469 5.5781-1.3438 1.0625-3.1211 1.5938-5.3281 1.5938h-4.4219v-5.0156h2.3906c1.3008 0 2.2422-0.21094 2.8281-0.625 0.59375-0.40625 1.0547-1.1484 1.3906-2.2188l0.20312-0.65625z"/>
  </symbol>
  <symbol id="g" overflow="visible">
   <path d="m3.6719-33.234h7.6562v33.234h-7.6562z"/>
  </symbol>
  <symbol id="m" overflow="visible">
   <path d="m19.422-33.234v5.0156h-4.2344c-1.0859 0-1.8398 0.19922-2.2656 0.59375-0.42969 0.38672-0.64062 1.0625-0.64062 2.0312v1.6719h6.5312v5.4688h-6.5312v18.453h-7.6406v-18.453h-3.8125v-5.4688h3.8125v-1.6719c0-2.6016 0.72266-4.5234 2.1719-5.7656 1.457-1.25 3.707-1.875 6.75-1.875z"/>
  </symbol>
  <symbol id="f" overflow="visible">
   <path d="m3.6719-23.922h7.6562v23.922h-7.6562zm0-9.3125h7.6562v6.2344h-7.6562z"/>
  </symbol>
  <symbol id="l" overflow="visible">
   <path d="m27.734-14.562v14.562h-7.7031v-11.156c0-2.0625-0.046875-3.4844-0.14062-4.2656-0.085937-0.78125-0.24219-1.3594-0.46875-1.7344-0.30469-0.5-0.71094-0.88281-1.2188-1.1562-0.51172-0.28125-1.0938-0.42188-1.75-0.42188-1.5938 0-2.8516 0.61719-3.7656 1.8438-0.90625 1.2305-1.3594 2.9375-1.3594 5.125v11.766h-7.6562v-23.922h7.6562v3.5c1.1445-1.3945 2.3633-2.4219 3.6562-3.0781 1.3008-0.66406 2.7383-1 4.3125-1 2.7578 0 4.8516 0.85156 6.2812 2.5469 1.4375 1.6875 2.1562 4.1523 2.1562 7.3906z"/>
  </symbol>
  <symbol id="k" overflow="visible">
   <path d="m1.5312-23.922h7.4375l4.0156 16.484 4.0469-16.484h6.375l4.0156 16.312 4.0469-16.312h7.4375l-6.3125 23.922h-8.3438l-4.0469-16.453-4.0156 16.453h-8.3438z"/>
  </symbol>
  <symbol id="j" overflow="visible">
   <path d="m27.734-14.562v14.562h-7.7031v-11.109c0-2.0938-0.046875-3.5312-0.14062-4.3125-0.085937-0.78125-0.24219-1.3594-0.46875-1.7344-0.30469-0.5-0.71094-0.88281-1.2188-1.1562-0.51172-0.28125-1.0938-0.42188-1.75-0.42188-1.5938 0-2.8516 0.61719-3.7656 1.8438-0.90625 1.2305-1.3594 2.9375-1.3594 5.125v11.766h-7.6562v-33.234h7.6562v12.812c1.1445-1.3945 2.3633-2.4219 3.6562-3.0781 1.3008-0.66406 2.7383-1 4.3125-1 2.7578 0 4.8516 0.85156 6.2812 2.5469 1.4375 1.6875 2.1562 4.1523 2.1562 7.3906z"/>
  </symbol>
 </defs>
 <g>
  <path d="m446.25 245c0 14.496-11.754 26.25-26.25 26.25s-26.25-11.754-26.25-26.25 11.754-26.25 26.25-26.25 26.25 11.754 26.25 26.25"/>
  <path d="m306.25 245c0 14.496-11.754 26.25-26.25 26.25s-26.25-11.754-26.25-26.25 11.754-26.25 26.25-26.25 26.25 11.754 26.25 26.25"/>
  <path d="m542.5 229.25v-19.426c16.891-12.641 28.637-30.973 33.055-51.602 4.4219-20.629 1.2266-42.164-9-60.617-10.23-18.457-26.793-32.582-46.629-39.77-12.605-19.715-32.594-33.559-55.484-38.426-22.891-4.8672-46.777-0.35547-66.316 12.527-12.848-8.4688-27.703-13.398-43.066-14.293-15.367-0.89062-30.691 2.2891-44.434 9.2188-18.414-9.2891-39.52-11.766-59.582-6.9922-20.062 4.7695-37.793 16.484-50.055 33.066-23.465 2.4023-44.961 14.191-59.605 32.68-14.645 18.492-21.191 42.113-18.156 65.504 3.0352 23.391 15.395 44.562 34.273 58.703v19.426c-19.75 4.0586-37.5 14.805-50.25 30.426-12.75 15.621-19.727 35.16-19.75 55.324 0.015625 4.6367 1.8633 9.082 5.1406 12.359s7.7227 5.125 12.359 5.1406c18.957-0.015625 37.395-6.2188 52.5-17.676v35.176c0 51.055 20.281 100.02 56.383 136.12 36.102 36.102 85.062 56.383 136.12 56.383s100.02-20.281 136.12-56.383c36.102-36.102 56.383-85.062 56.383-136.12v-35.176c15.105 11.457 33.543 17.66 52.5 17.676 4.6367-0.015625 9.082-1.8633 12.359-5.1406s5.125-7.7227 5.1406-12.359c-0.023438-20.164-7-39.703-19.75-55.324-12.75-15.621-30.5-26.367-50.25-30.426zm-414.84 63.086c5.1836-10.785 13.887-19.488 24.672-24.672-5.1836 10.785-13.887 19.488-24.672 24.672zm379.84 57.664c-0.039062 39.078-14.59 76.746-40.828 105.7-26.242 28.953-62.301 47.133-101.18 51.008 1.2969-2.4531 1.9883-5.1836 2.0117-7.9609v-96.602l37.188-29.75c4.6562-3.9727 6.8945-10.094 5.9062-16.137-0.98828-6.0391-5.0664-11.125-10.746-13.406-5.6797-2.2852-12.141-1.4336-17.035 2.2461l-32.812 26.25-32.812-26.25c-3.6016-3.0781-8.2969-4.5625-13.012-4.1172-4.7148 0.44922-9.0469 2.7852-12.008 6.4805-2.9609 3.6953-4.3008 8.4336-3.707 13.133 0.59375 4.6992 3.0664 8.957 6.8516 11.801l37.188 29.75v96.602c0.023438 2.7773 0.71484 5.5078 2.0117 7.9609-38.883-3.875-74.941-22.055-101.18-51.008-26.238-28.957-40.789-66.625-40.828-105.7v-124.25c5.7617 1.1562 11.625 1.7461 17.5 1.75 27.699-0.074219 53.738-13.211 70.262-35.438 10.578-1.1055 20.867-4.1289 30.363-8.9258 13.742 6.9414 29.078 10.117 44.445 9.2109 15.367-0.90625 30.223-5.8633 43.055-14.371 5.6953 3.75 11.801 6.832 18.199 9.1875 16.051 25.152 43.836 40.367 73.676 40.336 5.875-0.003906 11.738-0.59375 17.5-1.75zm8.6641-164.59c-3.8477 2.2383-7.9648 3.9727-12.25 5.1602-0.26172 0.085937-0.61328 0.17578-0.96094 0.26172-1.75 0.4375-3.5 0.78906-5.25 1.0508h-0.003906c-0.42969 0.10156-0.87109 0.16016-1.3125 0.17578-2.1172 0.27344-4.25 0.41797-6.3867 0.4375-9.5703 0.007812-18.961-2.6055-27.152-7.5586-8.1914-4.9492-14.867-12.051-19.309-20.527-2.2344-4.3438-6.2148-7.5273-10.938-8.75-8.3906-2.293-16.086-6.6211-22.402-12.602-1.0273-0.92188-2.1406-1.7422-3.3242-2.4492-1.7305-0.95703-3.5859-1.6641-5.5117-2.1016-1.0703-0.17188-2.1523-0.26172-3.2383-0.26172-4.4961-0.019531-8.8242 1.707-12.074 4.8125-8.6641 8.2578-19.898 13.293-31.824 14.266-11.93 0.96875-23.828-2.1797-33.715-8.9297-2.9219-1.9648-6.3633-3.0156-9.8867-3.0156s-6.9648 1.0508-9.8867 3.0156c-8.5625 5.8594-18.676 9.0273-29.051 9.1016h-0.78906c-3.1328-0.15234-6.2461 0.57812-8.9844 2.1133-2.7383 1.5312-4.9922 3.8008-6.5 6.5508-9.3555 16.25-26.66 26.289-45.414 26.336-2.1367-0.019531-4.2695-0.16406-6.3867-0.4375-0.44141-0.015625-0.88281-0.074219-1.3125-0.17578-1.75-0.26172-3.5-0.61328-5.25-1.0508-0.35156-0.085938-0.69922-0.17578-0.96094-0.26172h-0.003906c-11.055-3.0898-20.801-9.6992-27.762-18.824-6.9648-9.125-10.762-20.273-10.824-31.75 0.015625-13.844 5.4922-27.121 15.238-36.953 9.75-9.8281 22.98-15.414 36.824-15.547h0.78906c3.1133 0.054688 6.1914-0.71875 8.9102-2.2422 2.7227-1.5195 4.9883-3.7383 6.5742-6.4219 9.3555-16.25 26.66-26.289 45.414-26.336 10.523-0.023438 20.809 3.1484 29.488 9.1016 2.9219 1.9648 6.3633 3.0156 9.8867 3.0156s6.9648-1.0508 9.8867-3.0156c9.8867-6.75 21.785-9.8984 33.715-8.9297 11.926 0.97266 23.16 6.0078 31.824 14.266 3.2656 3.0781 7.5859 4.7891 12.074 4.7891s8.8086-1.7109 12.074-4.7891c11.906-11.332 28.441-16.418 44.656-13.734 16.219 2.6836 30.234 12.824 37.855 27.383 2.2344 4.3438 6.2148 7.5273 10.938 8.75 13.445 3.5977 24.91 12.395 31.859 24.457 6.9492 12.059 8.8164 26.387 5.1875 39.82-3.6328 13.438-12.457 24.879-24.531 31.801zm31.5 82.25c10.785 5.1836 19.488 13.887 24.672 24.672-10.785-5.1836-19.488-13.887-24.672-24.672z"/>
  <use x="70" y="691.25" xlink:href="#n"/>
  <use x="102.109375" y="691.25" xlink:href="#e"/>
  <use x="123.683594" y="691.25" xlink:href="#d"/>
  <use x="153.355469" y="691.25" xlink:href="#a"/>
  <use x="182.878906" y="691.25" xlink:href="#c"/>
  <use x="203.792969" y="691.25" xlink:href="#d"/>
  <use x="233.464844" y="691.25" xlink:href="#b"/>
  <use x="280.011719" y="691.25" xlink:href="#i"/>
  <use x="311.328125" y="691.25" xlink:href="#h"/>
  <use x="355.078125" y="691.25" xlink:href="#a"/>
  <use x="384.601562" y="691.25" xlink:href="#g"/>
  <use x="399.597656" y="691.25" xlink:href="#m"/>
  <use x="418.632812" y="691.25" xlink:href="#f"/>
  <use x="433.628906" y="691.25" xlink:href="#a"/>
  <use x="463.152344" y="691.25" xlink:href="#l"/>
  <use x="509.53125" y="691.25" xlink:href="#b"/>
  <use x="540.847656" y="691.25" xlink:href="#k"/>
  <use x="581.265625" y="691.25" xlink:href="#f"/>
  <use x="611.492188" y="691.25" xlink:href="#j"/>
  <use x="642.636719" y="691.25" xlink:href="#a"/>
  <use x="672.160156" y="691.25" xlink:href="#e"/>
  <use x="693.738281" y="691.25" xlink:href="#c"/>
 </g>
</svg>
